<svg width="521" height="199" viewBox="0 0 521 199" fill="none" xmlns="http://www.w3.org/2000/svg">
<g clip-path="url(#clip0_1217_2)">
<path fill-rule="evenodd" clip-rule="evenodd" d="M92.0787 -0.233647C93.6019 -0.984025 95.4244 0.120133 95.4244 1.8562V46.8826C103.333 54.4285 105.894 68.2826 106.168 74.7078C105.596 72.0932 104.777 69.0562 103.607 65.9031C101.721 59.5133 98.4273 52.7243 93.0035 48.7585C81.1157 40.0664 70.5036 38.7898 50.0133 46.5046C49.6132 46.6553 49.2155 46.7993 48.8219 46.9392C34.2196 50.8686 24.6041 48.0985 21.0358 45.4783L14.4156 49.7253C14.3689 49.7594 14.3225 49.7939 14.276 49.8279V134.367L28.1891 142.384C32.1094 138.386 37.7786 134.111 45.5895 130.331C48.7467 129.501 52.5019 128.391 56.9801 126.856C71.9498 121.726 85.3368 117.155 95.4244 111.542V111.576C108.746 104.872 113.168 99.3323 114.728 96.0496C111.884 104.751 105.101 111.291 95.4244 116.708V149.907C94.4712 150.562 93.331 151.232 91.9244 151.967V118.597C82.5431 123.273 70.975 127.13 58.0016 130.655C45.5155 134.048 36.6944 139.044 30.7623 143.866L65.0524 163.624C66.8194 162.971 68.4996 162.53 70.5865 161.633C80.8739 158.137 89.2822 155.75 95.4244 152.423V152.44C108.622 146.455 112.701 141.469 114.047 138.638C111.493 146.45 104.868 152.073 95.4244 156.624V181.14C95.4241 182.929 93.4881 184.048 91.9381 183.155L27.9801 146.303C24.0446 150.033 21.8377 153.465 20.9762 155.717C20.5378 153.833 21.8944 149.786 25.7926 145.044L11.941 137.062C11.2209 136.647 10.7762 135.879 10.776 135.048V52.5124C4.22195 57.8037 0.834338 62.2073 -0.478882 65.3581C2.14816 58.7826 3.98866 53.9486 10.776 48.2419V35.3689L6.52307 30.8669C6.11563 30.4355 5.88846 29.8637 5.88831 29.2703V16.1218C5.88847 9.68069 11.1103 4.45924 17.5514 4.45874C23.9929 4.45874 29.2153 9.68038 29.2155 16.1218V36.2361L91.9323 -0.155522L92.0787 -0.233647ZM91.9244 158.237C85.5051 160.975 78.0531 163.355 69.8922 165.573C69.5624 165.663 69.236 165.756 68.9127 165.848L91.9244 179.107V158.237ZM28.3688 40.7732L27.5094 41.3249L27.5172 41.3708C27.2583 41.5178 27.0034 41.668 26.7487 41.8142L21.8102 44.9812C26.6823 46.8498 36.6343 48.1071 50.4039 42.9226C70.0469 35.5268 80.6112 36.3954 91.9244 44.1374V3.89526L28.3688 40.7732ZM17.5514 7.95874C13.0433 7.95924 9.38847 11.6137 9.38831 16.1218V28.8025L13.6412 33.3064C14.0488 33.738 14.276 34.3094 14.276 34.9031V45.5398C16.7461 43.7738 19.7155 41.8998 23.3268 39.8503L25.7155 38.3171V16.1218C25.7153 11.6134 22.0599 7.95874 17.5514 7.95874Z" fill="#B79961"/>
<path d="M112.191 136.855C112.743 136.855 113.191 137.303 113.191 137.855C113.191 138.407 112.743 138.855 112.191 138.855C111.639 138.855 111.191 138.407 111.191 137.855C111.191 137.303 111.639 136.855 112.191 136.855Z" fill="#B79961"/>
<path d="M114.73 136.503C114.645 136.891 114.551 137.274 114.447 137.652C114.351 137.944 114.22 138.273 114.047 138.638C114.156 138.303 114.636 136.846 114.73 136.503Z" fill="#B79961"/>
<path d="M114.676 136.804L114.73 136.503C114.755 136.361 114.773 136.257 114.796 136.192C114.78 136.279 114.7 136.69 114.676 136.804Z" fill="#B79961"/>
<path d="M91.9244 50.0984C93.2082 51.3249 94.3686 52.6626 95.4244 54.073V108.723C94.3259 109.379 93.1604 110.048 91.9244 110.73V50.0984Z" fill="#B79961"/>
<path d="M115.606 93.3064C115.497 93.8049 115.375 94.2972 115.242 94.783C115.118 95.1571 114.951 95.5798 114.728 96.0496C114.869 95.6194 115.485 93.7469 115.606 93.3064Z" fill="#B79961"/>
<path d="M115.538 93.6951L115.606 93.3064C115.639 93.1249 115.662 92.9912 115.69 92.908C115.67 93.0193 115.568 93.5484 115.538 93.6951Z" fill="#B79961"/>
<path d="M110.017 75.8708C110.569 75.8708 111.017 76.3186 111.017 76.8708C111.017 77.4229 110.569 77.8708 110.017 77.8708C109.465 77.8707 109.017 77.4228 109.017 76.8708C109.017 76.3186 109.465 75.871 110.017 75.8708Z" fill="#B79961"/>
<path d="M3.01721 62.8748C3.5695 62.8748 4.01721 63.3225 4.01721 63.8747C4.01697 64.4268 3.56935 64.8747 3.01721 64.8747C2.46519 64.8746 2.01745 64.4267 2.01721 63.8747C2.01721 63.3225 2.46504 62.8749 3.01721 62.8748Z" fill="#B79961"/>
<path d="M48.6131 80.6262C63.0273 86.5546 72.7725 96.0449 79.2973 106.945C75.6348 94.5609 68.0854 81.4767 46.6131 74.6244C23.8416 67.3576 15.6131 61.1262 12.8116 49.5307C11.6076 53.8421 19.1373 70.8947 48.6131 80.6262Z" fill="#B79961"/>
<path d="M91.7068 154.235C92.1191 164.956 91.2982 174.128 90.6941 179.596C90.7189 180.921 90.7322 182.234 90.7322 183.531C89.7617 186.55 90.134 184.665 90.6941 179.596C90.547 171.753 89.9707 163.462 89.0398 155.406C89.9644 155.024 90.854 154.636 91.7068 154.235Z" fill="#B79961"/>
<path d="M79.2973 106.945C87.81 121.166 90.8399 137.786 91.6052 152.025C90.784 152.482 89.859 152.959 88.8093 153.473C87.5971 143.634 85.8597 134.23 83.7322 126.529C82.2483 121.157 81.4341 114.17 79.2973 106.945Z" fill="#B79961"/>
<path d="M442.86 8.89062H464.907C461.651 10.3703 458.692 13.0337 458.692 20.728V74.7358C459.876 71.7765 462.243 69.409 465.203 67.6334C469.642 64.674 475.708 62.8985 481.627 61.1229C484.882 59.9391 488.285 58.9034 491.245 57.5717C493.612 56.6839 495.832 55.5001 497.755 54.1684C501.898 51.2091 504.71 47.362 504.858 41.2953V20.728C504.858 13.0337 501.898 10.3703 498.643 8.89062H520.69C517.435 10.3703 514.475 13.0337 514.475 20.728V100.482C514.475 108.176 517.435 110.84 520.69 112.467H498.643C501.898 110.84 504.858 108.176 504.858 100.482V47.362C503.526 50.6172 501.306 53.1327 498.347 55.2042C493.908 58.3115 487.841 60.383 481.923 62.1586C476.004 64.0822 470.085 65.8578 465.794 68.6692C461.355 71.3326 458.692 74.8837 458.692 80.6544V100.482C458.692 108.176 461.651 110.84 464.907 112.467H442.86C445.967 110.84 449.074 108.176 449.074 100.482V20.728C449.074 13.0337 445.967 10.3703 442.86 8.89062Z" fill="#2C4738"/>
<path d="M386.13 8.88625L400.631 8.73828L430.668 100.478C433.331 108.468 435.107 110.835 438.362 112.315H418.387C421.494 110.835 422.678 106.692 420.606 100.478L407.881 61.5624C407.881 65.1136 406.845 67.777 405.07 69.9965C402.11 73.6956 397.079 75.6192 391.605 77.0989C386.13 78.7265 380.063 79.9102 375.032 82.1297C370.002 84.3492 366.006 87.4565 364.231 92.9313L362.307 98.554C361.715 100.182 361.419 101.513 360.828 103.141C359.496 107.876 359.2 111.131 361.863 112.315H352.837C355.945 110.835 357.868 108.468 360.384 100.626L389.681 11.2537C388.645 10.07 387.462 9.47811 386.13 8.88625ZM390.569 12.2895L366.154 87.0126C368.374 84.3492 371.333 82.5736 374.589 81.094C379.767 78.7265 385.834 77.5428 391.309 75.9151C396.784 74.4355 401.518 72.5119 404.182 69.2566C408.029 64.2258 406.401 57.2713 403.738 49.1332L394.268 20.5756C393.084 16.5805 391.901 14.0651 390.569 12.2895Z" fill="#2C4738"/>
<path d="M276.976 8.89062C287.629 8.89062 296.211 8.89062 306.125 8.89062C308.049 8.89062 309.972 8.89062 311.896 8.89062C315.151 9.0386 318.11 9.33453 320.626 9.77843C324.473 10.3703 328.024 11.4061 331.132 13.0337C334.239 14.6613 337.346 17.0288 339.566 20.58C344.301 28.5702 343.561 38.9279 339.122 45.5864C336.754 49.1376 333.647 51.801 330.54 53.8725C327.58 55.944 324.029 57.7196 320.478 59.4952C320.034 59.7912 319.442 60.0871 318.998 60.383L337.494 100.63C340.897 107.88 345.188 110.84 348.444 112.319H332.315L310.416 64.822C307.013 66.7456 304.498 68.3732 302.574 70.0008C300.206 71.7764 298.431 73.7 296.951 75.4756C295.62 77.2512 294.584 79.3227 293.844 81.8382C293.252 83.7617 292.808 85.9813 292.808 88.6447V100.482C292.808 108.176 295.767 110.84 299.023 112.467H276.976C280.083 110.84 283.19 108.176 283.19 100.482V20.728C283.19 13.0337 280.083 10.3703 276.976 8.89062ZM302.278 10.0744C300.798 10.0744 299.467 10.0744 297.987 10.5183C294.732 11.554 292.808 14.0695 292.808 19.9881V81.2463C293.548 78.7309 294.732 76.6594 296.063 74.7358C297.543 72.8122 299.467 71.0366 301.834 69.113C307.605 64.674 313.671 62.1586 319.294 57.7196C322.401 55.2042 324.917 52.6888 326.988 50.0254C329.06 47.362 330.54 44.5506 331.575 41.5913C333.647 35.8206 333.499 30.1978 331.871 24.2792C331.131 21.7637 329.8 19.3963 327.876 17.3247C326.101 15.2532 323.437 13.3296 320.034 11.9979C317.667 11.1101 314.855 10.3703 311.6 10.2223C310.564 10.0744 309.084 10.0744 307.901 10.0744C305.681 10.0744 303.906 10.0744 302.278 10.0744Z" fill="#2C4738"/>
<path d="M202.27 8.73828H222.246C218.99 10.3659 218.694 14.509 221.358 20.7236L241.925 67.9249L262.64 20.7236C265.304 14.509 266.635 10.3659 263.38 8.73828H272.554C269.299 10.3659 267.375 12.5854 263.824 20.7236L242.221 70.2924V100.478C242.221 108.172 245.18 110.835 248.436 112.463H226.389C229.644 110.835 232.603 108.172 232.603 100.478V70.2924L210.852 20.7236C207.301 12.5854 205.377 10.3659 202.27 8.73828Z" fill="#2C4738"/>
<path d="M138.69 8.88625L197.877 8.73828L149.788 111.131H186.039C193.586 111.131 196.249 108.172 197.877 104.917V112.315H138.69L186.631 10.07H150.527C142.833 10.07 140.17 13.0293 138.69 16.2846V8.88625Z" fill="#2C4738"/>
<path d="M263.766 139.479C264.625 139.384 265.39 139.432 266.202 139.575C267.635 139.766 268.877 140.148 270.119 141.151C271.79 142.536 272.65 145.164 271.504 146.644C271.122 147.122 270.501 147.313 269.88 147.122C269.211 146.931 268.781 146.358 268.781 145.689C268.829 144.638 269.736 143.731 268.972 142.107C268.733 141.581 268.208 141.056 267.539 140.674C266.011 139.766 264.195 139.527 262.38 140.1C260.422 140.769 259.18 142.823 260.47 144.59C261.473 145.928 263.622 147.074 265.819 147.934C268.16 148.889 271.074 150.323 272.125 152.376C272.316 152.759 272.459 153.141 272.555 153.571C272.841 155.051 272.698 156.532 271.886 157.774C270.405 159.971 267.396 161.309 264.339 161.309C263.336 161.309 262.285 161.166 261.138 160.783C260.231 160.401 259.419 159.924 258.798 159.255C258.033 158.538 257.604 157.726 257.365 156.867C257.126 155.959 257.174 155.147 257.269 154.622C257.317 154.192 257.412 153.809 257.46 153.666L257.842 153.809C257.795 153.905 257.699 154.287 257.651 154.717C257.556 155.195 257.508 155.911 257.747 156.771C257.938 157.535 258.368 158.3 259.037 158.968C259.658 159.589 260.47 160.019 261.329 160.354C263.097 160.975 264.816 160.879 266.632 160.258C267.491 159.924 268.303 159.494 268.924 158.921C270.501 157.631 270.787 155.386 269.545 154.048C268.638 153.045 267.061 151.947 264.673 150.896C263.192 150.227 261.52 149.51 260.135 148.46C257.795 146.692 257.604 144.304 258.654 142.298C259.037 141.677 259.514 141.151 260.135 140.674C260.756 140.244 261.473 139.909 262.285 139.718C262.762 139.575 263.24 139.527 263.766 139.479Z" fill="#2C4738"/>
<path d="M245.987 139.34C246.608 139.34 247.325 139.388 248.137 139.626C249.044 139.865 249.952 140.247 250.812 140.916C252.961 142.588 253.773 144.738 253.773 148.081V157.444C253.773 159.927 254.729 160.787 255.779 161.313H250.668V147.938C250.668 144.069 249.522 140.009 245.08 140.009C244.506 140.009 243.694 140.152 242.835 140.534C242.07 140.916 241.354 141.442 240.733 142.11C240.112 142.779 239.634 143.591 239.348 144.355C238.918 145.406 238.822 146.6 238.822 147.842V157.444C238.822 159.927 239.777 160.787 240.828 161.265H233.711C234.714 160.787 235.717 159.927 235.717 157.444V148.272C235.717 143.543 235.574 142.588 234.523 142.11C236.195 142.11 238.344 140.63 238.822 139.435V142.922V144.594C238.822 144.499 238.87 144.355 238.918 144.212C239.252 143.4 239.73 142.54 240.351 141.776C241.019 141.012 241.784 140.438 242.596 140.056C243.551 139.579 244.411 139.435 245.08 139.388C245.175 139.388 245.318 139.388 245.414 139.388C245.605 139.388 245.796 139.34 245.987 139.34Z" fill="#2C4738"/>
<path d="M230.482 134.418C230.673 134.418 230.816 134.418 230.959 134.466C231.819 134.609 232.392 135.373 232.249 136.233C232.153 136.854 231.724 137.284 231.15 137.475C230.482 137.666 229.813 137.332 229.096 137.188C228.666 137.141 228.189 137.188 227.711 137.427C226.612 138 226.278 139.195 226.039 140.198C229.717 141.631 232.106 144.783 232.106 148.223C232.106 153.095 227.472 157.012 221.788 157.012C219.352 157.012 216.964 156.295 215.101 154.91C215.005 154.958 214.91 155.006 214.814 155.053C213.906 155.722 213.477 156.773 213.572 157.967C214.002 160.021 217.393 161.12 221.119 162.314C223.842 163.174 230.052 164.034 231.341 167.759C231.771 169.001 231.628 170.291 230.959 171.533C230.577 172.249 230.099 172.87 229.478 173.396C228.81 173.921 227.854 174.351 226.995 174.686C223.03 176.262 218.253 175.975 215.196 174.781C214.289 174.447 213.62 174.017 212.808 173.348C212.33 172.918 211.996 172.441 211.709 171.963C211.088 170.816 210.849 169.145 211.136 167.903C211.375 166.995 211.757 166.374 212.856 166.231C213.668 166.231 214.384 166.947 214.384 167.759C214.384 168.476 213.811 169.001 213.477 169.575C212.521 171.151 212.426 172.918 214.766 174.16C217.728 175.593 223.125 175.975 227.377 174.16C228.237 173.73 228.666 173.444 228.953 173.253C230.099 172.393 230.816 170.912 230.147 169.622C228.38 167.234 222.887 166.47 217.107 164.225C215.483 163.508 213.62 162.362 212.903 160.499C212.426 159.161 212.473 157.489 213.381 156.104C213.763 155.531 214.145 155.053 214.623 154.767C214.671 154.719 214.718 154.671 214.766 154.671C212.664 152.999 211.47 150.659 211.47 148.223C211.47 143.35 216.104 139.434 221.788 139.434C223.125 139.434 224.415 139.672 225.657 140.054C225.705 139.72 225.848 139.004 226.087 138.335C226.66 136.663 227.711 135.134 229.478 134.561C229.813 134.466 230.147 134.418 230.482 134.418ZM220.928 139.911C219.973 139.911 219.065 140.102 218.205 140.532C214.575 142.204 213.238 147.028 215.196 151.327C217.155 155.579 221.692 157.681 225.371 155.961C229.001 154.241 230.338 149.417 228.38 145.166C226.899 142.013 223.985 139.911 220.928 139.911Z" fill="#2C4738"/>
<path d="M206.123 134.512C207.174 134.512 208.081 135.419 208.081 136.47C208.081 137.569 207.174 138.429 206.123 138.429C205.024 138.429 204.165 137.569 204.165 136.47C204.165 135.419 205.024 134.512 206.123 134.512ZM208.081 139.432V142.919V157.44C208.081 159.924 209.037 160.784 210.088 161.309H202.97C203.973 160.784 204.977 159.924 204.977 157.44V148.269C204.977 143.54 204.833 142.584 203.782 142.107C205.454 142.107 207.604 140.626 208.081 139.432Z" fill="#2C4738"/>
<path d="M192.628 139.479C193.488 139.384 194.252 139.432 195.064 139.575C196.497 139.766 197.739 140.148 198.981 141.151C200.653 142.536 201.513 145.164 200.366 146.644C199.984 147.122 199.363 147.313 198.742 147.122C198.073 146.931 197.644 146.358 197.644 145.689C197.691 144.638 198.599 143.731 197.835 142.107C197.596 141.581 197.07 141.056 196.402 140.674C194.873 139.766 193.058 139.527 191.243 140.1C189.284 140.769 188.042 142.823 189.332 144.59C190.335 145.928 192.485 147.074 194.682 147.934C197.023 148.889 199.936 150.323 200.987 152.376C201.178 152.759 201.322 153.141 201.417 153.571C201.704 155.051 201.56 156.532 200.748 157.774C199.268 159.971 196.258 161.309 193.201 161.309C192.198 161.309 191.147 161.166 190.001 160.783C189.093 160.401 188.281 159.924 187.66 159.255C186.896 158.538 186.466 157.726 186.227 156.867C185.988 155.959 186.036 155.147 186.132 154.622C186.18 154.192 186.275 153.809 186.323 153.666L186.705 153.809C186.657 153.905 186.562 154.287 186.514 154.717C186.418 155.195 186.371 155.911 186.609 156.771C186.8 157.535 187.23 158.3 187.899 158.968C188.52 159.589 189.332 160.019 190.192 160.354C191.959 160.975 193.679 160.879 195.494 160.258C196.354 159.924 197.166 159.494 197.787 158.921C199.363 157.631 199.65 155.386 198.408 154.048C197.5 153.045 195.924 151.947 193.536 150.896C192.055 150.227 190.383 149.51 188.998 148.46C186.657 146.692 186.466 144.304 187.517 142.298C187.899 141.677 188.377 141.151 188.998 140.674C189.619 140.244 190.335 139.909 191.147 139.718C191.625 139.575 192.103 139.527 192.628 139.479Z" fill="#2C4738"/>
<path d="M234.078 120.469C240.909 120.469 244.635 124.147 246.02 127.968C246.402 129.019 246.593 130.07 246.689 131.073C246.784 132.793 246.784 134.799 245.542 135.993C245.112 136.423 244.539 136.757 243.966 136.805C243.106 136.805 242.39 136.089 242.39 135.277C242.39 134.799 242.581 134.417 242.915 134.13C243.345 133.7 243.966 133.7 244.539 133.557C245.495 133.318 246.402 132.888 246.307 131.121C246.259 130.165 246.02 129.115 245.686 128.111C244.3 124.386 240.813 120.851 234.078 120.851C227.2 120.851 221.229 125.389 215.401 131.551C209.622 137.713 204.033 145.451 197.966 151.708C189.798 160.115 183.732 163.698 178.239 163.698C178.143 163.698 178 163.698 177.904 163.698C174.704 163.602 168.972 162.408 166.01 156.581C165.389 155.53 165.007 154.288 164.768 152.95C164.577 151.613 164.625 150.419 164.768 148.986C164.912 147.6 165.246 146.358 165.724 145.308C166.536 143.492 167.73 142.298 168.828 141.438C170.548 140.292 172.459 139.384 175.42 139.384C176.232 139.384 177.092 139.432 177.952 139.576C179.815 139.862 181.439 140.579 182.681 142.203C183.971 144.113 183.875 146.55 182.633 148.365C182.06 149.177 181.296 149.75 180.531 150.132C180.006 150.419 179.433 150.705 178.764 150.944C178.573 150.992 178.334 151.087 178.143 151.183C177.331 151.422 176.519 151.661 175.564 151.899C174.704 152.138 173.844 152.377 173.032 152.616C172.124 152.903 171.408 153.237 170.739 153.571C170.453 153.715 170.166 153.858 169.927 154.049C169.545 154.288 169.211 154.622 168.972 154.909C168.781 155.148 168.637 155.339 168.494 155.53C170.262 160.498 174.369 162.934 177.188 163.268C177.522 163.316 177.904 163.316 178.239 163.316C183.541 163.316 189.559 159.829 197.68 151.422C203.746 145.212 209.335 137.474 215.115 131.264C220.942 125.102 227.057 120.469 234.078 120.469ZM175.277 139.767C173.175 139.767 170.93 141.343 169.927 142.633C169.211 143.54 168.59 144.687 168.208 146.215C167.491 148.986 167.634 152.377 168.399 155.1C168.494 155.004 168.59 154.861 168.685 154.718C168.972 154.336 169.354 154.049 169.736 153.715C169.927 153.524 170.214 153.38 170.5 153.189C171.169 152.759 171.933 152.377 172.793 151.995C173.605 151.661 174.417 151.326 175.277 150.992C176.137 150.658 176.901 150.323 177.618 149.941C177.809 149.845 177.952 149.75 178.143 149.654C178.669 149.32 179.098 148.938 179.385 148.604C180.197 147.744 180.722 146.454 180.722 145.021C180.675 143.11 179.719 141.056 177.761 140.292C176.949 139.958 176.137 139.767 175.277 139.767Z" fill="#2C4738"/>
<path d="M146.142 127.828C147.336 127.828 148.196 127.828 149.485 127.924C150.68 128.115 151.826 128.449 152.829 128.927C154.453 129.643 155.982 130.742 157.271 132.079C159.134 134.086 161.093 137.238 161.618 141.776C161.857 143.543 161.857 145.311 161.666 147.078C161.475 148.846 161.093 150.374 160.663 151.664C159.851 153.909 158.752 155.676 157.51 157.062C156.268 158.399 154.788 159.498 153.164 160.214C152.113 160.692 150.918 161.026 149.581 161.217C148.817 161.265 147.861 161.313 147.002 161.313H138.69C139.693 160.787 140.696 159.928 140.696 157.444V131.697C140.696 129.213 139.693 128.354 138.69 127.876L146.142 127.828ZM147.336 128.21C146.811 128.258 146.381 128.21 145.855 128.306C144.565 128.545 143.801 129.357 143.801 131.458V160.931H147.049C147.957 160.931 148.673 160.931 149.533 160.787C150.823 160.596 151.922 160.166 152.829 159.593C154.262 158.686 155.313 157.396 156.125 156.011C156.937 154.625 157.606 152.906 158.036 150.947C158.991 146.362 158.848 142.254 157.845 137.811C157.367 136.044 156.651 134.468 155.886 133.178C155.026 131.745 153.88 130.503 152.495 129.596C151.539 128.975 150.393 128.497 149.103 128.306C148.482 128.21 147.909 128.21 147.336 128.21Z" fill="#2C4738"/>
</g>
<defs>
<clipPath id="clip0_1217_2">
<rect width="521" height="199" fill="white"/>
</clipPath>
</defs>
</svg>
