<svg width="1089" height="676" viewBox="0 0 1089 676" fill="none" xmlns="http://www.w3.org/2000/svg">
<rect width="1089" height="676" fill="#F0EFEB"/>
<path fill-rule="evenodd" clip-rule="evenodd" d="M376.079 244.766C377.602 244.016 379.424 245.12 379.424 246.856V291.883C387.333 299.428 389.894 313.283 390.167 319.708C389.596 317.093 388.777 314.056 387.607 310.903C385.721 304.513 382.427 297.724 377.003 293.759C365.116 285.066 354.504 283.79 334.013 291.505C333.613 291.655 333.215 291.799 332.822 291.939C318.219 295.869 308.604 293.099 305.036 290.478L298.416 294.725C298.369 294.759 298.322 294.794 298.276 294.828V379.367L312.189 387.384C316.109 383.386 321.778 379.111 329.589 375.331C332.747 374.501 336.502 373.391 340.98 371.856C355.95 366.726 369.337 362.155 379.424 356.542V356.576C392.746 349.872 397.168 344.332 398.728 341.05C395.884 349.751 389.101 356.291 379.424 361.708V394.907C378.471 395.562 377.331 396.232 375.924 396.967V363.597C366.543 368.273 354.975 372.13 342.001 375.655C329.515 379.048 320.694 384.044 314.762 388.866L349.052 408.624C350.819 407.971 352.499 407.53 354.586 406.633C364.874 403.137 373.282 400.75 379.424 397.423V397.44C392.622 391.455 396.701 386.469 398.046 383.638C395.493 391.45 388.868 397.073 379.424 401.624V426.14C379.424 427.929 377.488 429.048 375.938 428.155L311.98 391.303C308.044 395.033 305.838 398.465 304.976 400.717C304.538 398.833 305.894 394.786 309.792 390.044L295.941 382.062C295.221 381.647 294.776 380.879 294.776 380.048V297.512C288.222 302.804 284.834 307.207 283.521 310.358C286.148 303.783 287.989 298.949 294.776 293.242V280.369L290.523 275.867C290.116 275.435 289.888 274.864 289.888 274.27V261.122C289.888 254.681 295.11 249.459 301.551 249.459C307.993 249.459 313.215 254.68 313.215 261.122V281.236L375.932 244.844L376.079 244.766ZM375.924 403.237C369.505 405.975 362.053 408.355 353.892 410.573C353.562 410.663 353.236 410.756 352.913 410.848L375.924 424.107V403.237ZM312.369 285.773L311.509 286.325L311.517 286.371C311.258 286.518 311.003 286.668 310.749 286.814L305.81 289.981C310.682 291.85 320.634 293.107 334.404 287.923C354.047 280.527 364.611 281.395 375.924 289.137V248.895L312.369 285.773ZM301.551 252.959C297.043 252.959 293.388 256.614 293.388 261.122V273.802L297.641 278.306C298.049 278.738 298.276 279.309 298.276 279.903V290.54C300.746 288.774 303.715 286.9 307.327 284.85L309.715 283.317V261.122C309.715 256.613 306.06 252.959 301.551 252.959Z" fill="#B79961"/>
<path d="M396.191 381.855C396.743 381.855 397.191 382.303 397.191 382.855C397.191 383.407 396.743 383.855 396.191 383.855C395.639 383.855 395.191 383.407 395.191 382.855C395.191 382.303 395.639 381.855 396.191 381.855Z" fill="#B79961"/>
<path d="M398.73 381.503C398.645 381.891 398.551 382.274 398.447 382.652C398.351 382.944 398.22 383.273 398.046 383.638C398.156 383.303 398.636 381.846 398.73 381.503Z" fill="#B79961"/>
<path d="M398.676 381.804L398.73 381.503C398.755 381.361 398.773 381.257 398.795 381.192C398.78 381.279 398.7 381.69 398.676 381.804Z" fill="#B79961"/>
<path d="M375.924 295.098C377.208 296.325 378.368 297.663 379.424 299.073V353.723C378.326 354.379 377.16 355.048 375.924 355.73V295.098Z" fill="#B79961"/>
<path d="M399.606 338.306C399.497 338.805 399.375 339.297 399.242 339.783C399.118 340.157 398.951 340.58 398.728 341.05C398.869 340.619 399.485 338.747 399.606 338.306Z" fill="#B79961"/>
<path d="M399.538 338.695L399.606 338.306C399.638 338.125 399.661 337.991 399.69 337.908C399.67 338.019 399.568 338.548 399.538 338.695Z" fill="#B79961"/>
<path d="M394.017 320.871C394.569 320.871 395.017 321.319 395.017 321.871C395.017 322.423 394.569 322.871 394.017 322.871C393.465 322.871 393.017 322.423 393.017 321.871C393.017 321.319 393.465 320.871 394.017 320.871Z" fill="#B79961"/>
<path d="M287.017 307.875C287.569 307.875 288.017 308.322 288.017 308.875C288.017 309.427 287.569 309.875 287.017 309.875C286.465 309.875 286.017 309.427 286.017 308.875C286.017 308.323 286.465 307.875 287.017 307.875Z" fill="#B79961"/>
<path d="M332.613 325.626C347.027 331.555 356.772 341.045 363.297 351.945C359.635 339.561 352.085 326.477 330.613 319.624C307.841 312.358 299.613 306.126 296.812 294.531C295.608 298.842 303.137 315.895 332.613 325.626Z" fill="#B79961"/>
<path d="M375.707 399.235C376.119 409.956 375.298 419.128 374.694 424.596C374.719 425.921 374.732 427.234 374.732 428.531C373.762 431.55 374.134 429.665 374.694 424.596C374.547 416.753 373.971 408.462 373.04 400.406C373.964 400.024 374.854 399.636 375.707 399.235Z" fill="#B79961"/>
<path d="M363.297 351.945C371.81 366.166 374.84 382.786 375.605 397.025C374.784 397.482 373.859 397.959 372.809 398.473C371.597 388.634 369.86 379.23 367.732 371.529C366.248 366.157 365.434 359.17 363.297 351.945Z" fill="#B79961"/>
<path d="M726.859 253.891H748.906C745.651 255.37 742.692 258.034 742.692 265.728V319.736C743.876 316.776 746.243 314.409 749.202 312.633C753.641 309.674 759.708 307.898 765.627 306.123C768.882 304.939 772.285 303.903 775.244 302.572C777.612 301.684 779.831 300.5 781.755 299.168C785.898 296.209 788.709 292.362 788.857 286.295V265.728C788.857 258.034 785.898 255.37 782.643 253.891H804.69C801.435 255.37 798.475 258.034 798.475 265.728V345.482C798.475 353.176 801.435 355.84 804.69 357.467H782.643C785.898 355.84 788.857 353.176 788.857 345.482V292.362C787.526 295.617 785.306 298.133 782.347 300.204C777.908 303.311 771.841 305.383 765.923 307.159C760.004 309.082 754.085 310.858 749.794 313.669C745.355 316.333 742.692 319.884 742.692 325.654V345.482C742.692 353.176 745.651 355.84 748.906 357.467H726.859C729.967 355.84 733.074 353.176 733.074 345.482V265.728C733.074 258.034 729.967 255.37 726.859 253.891Z" fill="#2C4738"/>
<path d="M670.13 253.886L684.631 253.738L714.668 345.478C717.331 353.468 719.107 355.835 722.362 357.315H702.387C705.494 355.835 706.678 351.692 704.606 345.478L691.881 306.562C691.881 310.114 690.845 312.777 689.07 314.996C686.11 318.696 681.079 320.619 675.605 322.099C670.13 323.727 664.063 324.91 659.032 327.13C654.002 329.349 650.006 332.457 648.231 337.931L646.307 343.554C645.715 345.182 645.419 346.513 644.828 348.141C643.496 352.876 643.2 356.131 645.863 357.315H636.837C639.945 355.835 641.868 353.468 644.384 345.626L673.681 256.254C672.645 255.07 671.462 254.478 670.13 253.886ZM674.569 257.289L650.154 332.013C652.374 329.349 655.333 327.574 658.589 326.094C663.767 323.727 669.834 322.543 675.309 320.915C680.784 319.435 685.518 317.512 688.182 314.257C692.029 309.226 690.401 302.271 687.738 294.133L678.268 265.576C677.084 261.581 675.901 259.065 674.569 257.289Z" fill="#2C4738"/>
<path d="M560.976 253.891C571.629 253.891 580.211 253.891 590.125 253.891C592.049 253.891 593.972 253.891 595.896 253.891C599.151 254.039 602.11 254.335 604.626 254.778C608.473 255.37 612.024 256.406 615.131 258.034C618.239 259.661 621.346 262.029 623.565 265.58C628.3 273.57 627.561 283.928 623.122 290.586C620.754 294.138 617.647 296.801 614.54 298.872C611.58 300.944 608.029 302.72 604.478 304.495C604.034 304.791 603.442 305.087 602.998 305.383L621.494 345.63C624.897 352.88 629.188 355.84 632.443 357.319H616.315L594.416 309.822C591.013 311.746 588.497 313.373 586.574 315.001C584.206 316.776 582.431 318.7 580.951 320.476C579.619 322.251 578.584 324.323 577.844 326.838C577.252 328.762 576.808 330.981 576.808 333.645V345.482C576.808 353.176 579.767 355.84 583.023 357.467H560.976C564.083 355.84 567.19 353.176 567.19 345.482V265.728C567.19 258.034 564.083 255.37 560.976 253.891ZM586.278 255.074C584.798 255.074 583.467 255.074 581.987 255.518C578.732 256.554 576.808 259.069 576.808 264.988V326.246C577.548 323.731 578.732 321.659 580.063 319.736C581.543 317.812 583.467 316.037 585.834 314.113C591.605 309.674 597.671 307.159 603.294 302.72C606.401 300.204 608.917 297.689 610.988 295.025C613.06 292.362 614.54 289.551 615.575 286.591C617.647 280.821 617.499 275.198 615.871 269.279C615.131 266.764 613.8 264.396 611.876 262.325C610.101 260.253 607.437 258.33 604.034 256.998C601.666 256.11 598.855 255.37 595.6 255.222C594.564 255.074 593.084 255.074 591.901 255.074C589.681 255.074 587.906 255.074 586.278 255.074Z" fill="#2C4738"/>
<path d="M486.27 253.738H506.245C502.99 255.366 502.694 259.509 505.357 265.724L525.925 312.925L546.64 265.724C549.304 259.509 550.635 255.366 547.38 253.738H556.554C553.299 255.366 551.375 257.585 547.824 265.724L526.221 315.292V345.478C526.221 353.172 529.18 355.835 532.435 357.463H510.388C513.644 355.835 516.603 353.172 516.603 345.478V315.292L494.852 265.724C491.301 257.585 489.377 255.366 486.27 253.738Z" fill="#2C4738"/>
<path d="M422.69 253.886L481.877 253.738L433.787 356.131H470.039C477.586 356.131 480.249 353.172 481.877 349.917V357.315H422.69L470.631 255.07H434.527C426.833 255.07 424.17 258.029 422.69 261.285V253.886Z" fill="#2C4738"/>
<path d="M547.765 384.479C548.625 384.384 549.389 384.432 550.201 384.575C551.634 384.766 552.876 385.148 554.118 386.151C555.79 387.536 556.65 390.164 555.504 391.644C555.121 392.122 554.5 392.313 553.879 392.122C553.211 391.931 552.781 391.358 552.781 390.689C552.829 389.638 553.736 388.731 552.972 387.107C552.733 386.581 552.208 386.056 551.539 385.674C550.01 384.766 548.195 384.527 546.38 385.1C544.422 385.769 543.18 387.823 544.469 389.59C545.472 390.928 547.622 392.074 549.819 392.934C552.16 393.889 555.074 395.323 556.124 397.376C556.316 397.759 556.459 398.141 556.554 398.571C556.841 400.051 556.698 401.532 555.886 402.774C554.405 404.971 551.396 406.309 548.338 406.309C547.335 406.309 546.284 406.166 545.138 405.783C544.231 405.401 543.418 404.924 542.797 404.255C542.033 403.538 541.603 402.726 541.364 401.867C541.126 400.959 541.173 400.147 541.269 399.622C541.317 399.192 541.412 398.809 541.46 398.666L541.842 398.809C541.794 398.905 541.699 399.287 541.651 399.717C541.556 400.195 541.508 400.911 541.747 401.771C541.938 402.535 542.368 403.3 543.036 403.968C543.657 404.589 544.469 405.019 545.329 405.354C547.097 405.975 548.816 405.879 550.631 405.258C551.491 404.924 552.303 404.494 552.924 403.921C554.5 402.631 554.787 400.386 553.545 399.048C552.638 398.045 551.061 396.947 548.673 395.896C547.192 395.227 545.52 394.51 544.135 393.46C541.794 391.692 541.603 389.304 542.654 387.298C543.036 386.677 543.514 386.151 544.135 385.674C544.756 385.244 545.472 384.909 546.284 384.718C546.762 384.575 547.24 384.527 547.765 384.479Z" fill="#2C4738"/>
<path d="M529.987 384.34C530.608 384.34 531.325 384.388 532.137 384.626C533.044 384.865 533.952 385.247 534.812 385.916C536.961 387.588 537.773 389.738 537.773 393.081V402.444C537.773 404.927 538.728 405.787 539.779 406.313H534.668V392.938C534.668 389.069 533.522 385.009 529.079 385.009C528.506 385.009 527.694 385.152 526.834 385.534C526.07 385.916 525.354 386.442 524.733 387.11C524.112 387.779 523.634 388.591 523.347 389.355C522.918 390.406 522.822 391.6 522.822 392.842V402.444C522.822 404.927 523.777 405.787 524.828 406.265H517.711C518.714 405.787 519.717 404.927 519.717 402.444V393.272C519.717 388.543 519.574 387.588 518.523 387.11C520.195 387.11 522.344 385.63 522.822 384.435V387.922V389.594C522.822 389.499 522.87 389.355 522.918 389.212C523.252 388.4 523.73 387.54 524.351 386.776C525.019 386.012 525.784 385.438 526.596 385.056C527.551 384.579 528.411 384.435 529.079 384.388C529.175 384.388 529.318 384.388 529.414 384.388C529.605 384.388 529.796 384.34 529.987 384.34Z" fill="#2C4738"/>
<path d="M514.481 379.418C514.672 379.418 514.816 379.418 514.959 379.466C515.819 379.609 516.392 380.373 516.249 381.233C516.153 381.854 515.723 382.284 515.15 382.475C514.481 382.666 513.813 382.332 513.096 382.188C512.666 382.141 512.189 382.188 511.711 382.427C510.612 383 510.278 384.195 510.039 385.198C513.717 386.631 516.105 389.783 516.105 393.223C516.105 398.095 511.472 402.012 505.788 402.012C503.352 402.012 500.963 401.295 499.1 399.91C499.005 399.958 498.909 400.006 498.814 400.053C497.906 400.722 497.476 401.773 497.572 402.967C498.002 405.021 501.393 406.12 505.119 407.314C507.842 408.174 514.051 409.034 515.341 412.759C515.771 414.001 515.628 415.291 514.959 416.533C514.577 417.249 514.099 417.87 513.478 418.396C512.81 418.921 511.854 419.351 510.994 419.686C507.03 421.262 502.253 420.975 499.196 419.781C498.288 419.447 497.62 419.017 496.808 418.348C496.33 417.918 495.996 417.441 495.709 416.963C495.088 415.816 494.849 414.145 495.136 412.903C495.375 411.995 495.757 411.374 496.855 411.231C497.667 411.231 498.384 411.947 498.384 412.759C498.384 413.476 497.811 414.001 497.476 414.575C496.521 416.151 496.425 417.918 498.766 419.16C501.728 420.593 507.125 420.975 511.376 419.16C512.236 418.73 512.666 418.444 512.953 418.253C514.099 417.393 514.816 415.912 514.147 414.622C512.38 412.234 506.886 411.47 501.107 409.225C499.483 408.508 497.62 407.362 496.903 405.499C496.425 404.161 496.473 402.489 497.381 401.104C497.763 400.531 498.145 400.053 498.623 399.767C498.67 399.719 498.718 399.671 498.766 399.671C496.664 397.999 495.47 395.659 495.47 393.223C495.47 388.35 500.103 384.434 505.788 384.434C507.125 384.434 508.415 384.672 509.657 385.054C509.705 384.72 509.848 384.004 510.087 383.335C510.66 381.663 511.711 380.134 513.478 379.561C513.813 379.466 514.147 379.418 514.481 379.418ZM504.928 384.911C503.973 384.911 503.065 385.102 502.205 385.532C498.575 387.204 497.237 392.028 499.196 396.327C501.154 400.579 505.692 402.681 509.37 400.961C513.001 399.241 514.338 394.417 512.38 390.166C510.899 387.013 507.985 384.911 504.928 384.911Z" fill="#2C4738"/>
<path d="M490.123 379.512C491.174 379.512 492.081 380.419 492.081 381.47C492.081 382.569 491.174 383.429 490.123 383.429C489.024 383.429 488.164 382.569 488.164 381.47C488.164 380.419 489.024 379.512 490.123 379.512ZM492.081 384.432V387.919V402.44C492.081 404.924 493.037 405.784 494.088 406.309H486.97C487.973 405.784 488.976 404.924 488.976 402.44V393.269C488.976 388.54 488.833 387.584 487.782 387.107C489.454 387.107 491.604 385.626 492.081 384.432Z" fill="#2C4738"/>
<path d="M476.628 384.479C477.488 384.384 478.252 384.432 479.064 384.575C480.497 384.766 481.739 385.148 482.981 386.151C484.653 387.536 485.512 390.164 484.366 391.644C483.984 392.122 483.363 392.313 482.742 392.122C482.073 391.931 481.643 391.358 481.643 390.689C481.691 389.638 482.599 388.731 481.834 387.107C481.596 386.581 481.07 386.056 480.401 385.674C478.873 384.766 477.058 384.527 475.243 385.1C473.284 385.769 472.042 387.823 473.332 389.59C474.335 390.928 476.485 392.074 478.682 392.934C481.022 393.889 483.936 395.323 484.987 397.376C485.178 397.759 485.321 398.141 485.417 398.571C485.704 400.051 485.56 401.532 484.748 402.774C483.267 404.971 480.258 406.309 477.201 406.309C476.198 406.309 475.147 406.166 474.001 405.783C473.093 405.401 472.281 404.924 471.66 404.255C470.896 403.538 470.466 402.726 470.227 401.867C469.988 400.959 470.036 400.147 470.131 399.622C470.179 399.192 470.275 398.809 470.323 398.666L470.705 398.809C470.657 398.905 470.561 399.287 470.514 399.717C470.418 400.195 470.37 400.911 470.609 401.771C470.8 402.535 471.23 403.3 471.899 403.968C472.52 404.589 473.332 405.019 474.192 405.354C475.959 405.975 477.679 405.879 479.494 405.258C480.354 404.924 481.166 404.494 481.787 403.921C483.363 402.631 483.65 400.386 482.408 399.048C481.5 398.045 479.924 396.947 477.535 395.896C476.055 395.227 474.383 394.51 472.998 393.46C470.657 391.692 470.466 389.304 471.517 387.298C471.899 386.677 472.377 386.151 472.998 385.674C473.618 385.244 474.335 384.909 475.147 384.718C475.625 384.575 476.102 384.527 476.628 384.479Z" fill="#2C4738"/>
<path d="M518.078 365.469C524.909 365.469 528.635 369.147 530.02 372.968C530.402 374.019 530.593 375.07 530.689 376.073C530.784 377.793 530.784 379.799 529.542 380.993C529.112 381.423 528.539 381.757 527.966 381.805C527.106 381.805 526.39 381.089 526.39 380.277C526.39 379.799 526.581 379.417 526.915 379.13C527.345 378.7 527.966 378.7 528.539 378.557C529.494 378.318 530.402 377.888 530.306 376.121C530.259 375.165 530.02 374.115 529.685 373.111C528.3 369.386 524.813 365.851 518.078 365.851C511.2 365.851 505.229 370.389 499.401 376.551C493.621 382.713 488.033 390.451 481.966 396.708C473.798 405.115 467.732 408.698 462.238 408.698C462.143 408.698 462 408.698 461.904 408.698C458.704 408.602 452.972 407.408 450.01 401.581C449.389 400.53 449.007 399.288 448.768 397.95C448.577 396.613 448.625 395.419 448.768 393.986C448.911 392.6 449.246 391.358 449.723 390.308C450.535 388.492 451.73 387.298 452.828 386.438C454.548 385.292 456.459 384.384 459.42 384.384C460.232 384.384 461.092 384.432 461.952 384.576C463.815 384.862 465.439 385.579 466.681 387.203C467.97 389.113 467.875 391.55 466.633 393.365C466.06 394.177 465.296 394.75 464.531 395.132C464.006 395.419 463.433 395.705 462.764 395.944C462.573 395.992 462.334 396.087 462.143 396.183C461.331 396.422 460.519 396.661 459.563 396.899C458.704 397.138 457.844 397.377 457.032 397.616C456.124 397.903 455.408 398.237 454.739 398.571C454.452 398.715 454.166 398.858 453.927 399.049C453.545 399.288 453.21 399.622 452.972 399.909C452.781 400.148 452.637 400.339 452.494 400.53C454.261 405.498 458.369 407.934 461.188 408.268C461.522 408.316 461.904 408.316 462.238 408.316C467.541 408.316 473.559 404.829 481.68 396.422C487.746 390.212 493.335 382.474 499.115 376.264C504.942 370.102 511.056 365.469 518.078 365.469ZM459.277 384.767C457.175 384.767 454.93 386.343 453.927 387.633C453.21 388.54 452.589 389.687 452.207 391.215C451.491 393.986 451.634 397.377 452.398 400.1C452.494 400.004 452.589 399.861 452.685 399.718C452.972 399.336 453.354 399.049 453.736 398.715C453.927 398.524 454.214 398.38 454.5 398.189C455.169 397.759 455.933 397.377 456.793 396.995C457.605 396.661 458.417 396.326 459.277 395.992C460.137 395.658 460.901 395.323 461.617 394.941C461.809 394.845 461.952 394.75 462.143 394.654C462.668 394.32 463.098 393.938 463.385 393.604C464.197 392.744 464.722 391.454 464.722 390.021C464.675 388.11 463.719 386.056 461.761 385.292C460.949 384.958 460.137 384.767 459.277 384.767Z" fill="#2C4738"/>
<path d="M430.142 372.828C431.336 372.828 432.196 372.828 433.485 372.924C434.679 373.115 435.826 373.449 436.829 373.927C438.453 374.643 439.982 375.742 441.271 377.079C443.134 379.086 445.093 382.238 445.618 386.776C445.857 388.543 445.857 390.311 445.666 392.078C445.475 393.846 445.093 395.374 444.663 396.664C443.851 398.909 442.752 400.676 441.51 402.062C440.268 403.399 438.787 404.498 437.163 405.214C436.112 405.692 434.918 406.026 433.581 406.217C432.817 406.265 431.861 406.313 431.001 406.313H422.69C423.693 405.787 424.696 404.928 424.696 402.444V376.697C424.696 374.213 423.693 373.354 422.69 372.876L430.142 372.828ZM431.336 373.21C430.81 373.258 430.38 373.21 429.855 373.306C428.565 373.545 427.801 374.357 427.801 376.458V405.931H431.049C431.957 405.931 432.673 405.931 433.533 405.787C434.823 405.596 435.921 405.166 436.829 404.593C438.262 403.686 439.313 402.396 440.125 401.011C440.937 399.625 441.606 397.906 442.036 395.947C442.991 391.362 442.848 387.254 441.845 382.811C441.367 381.044 440.65 379.468 439.886 378.178C439.026 376.745 437.88 375.503 436.495 374.596C435.539 373.975 434.393 373.497 433.103 373.306C432.482 373.21 431.909 373.21 431.336 373.21Z" fill="#2C4738"/>
</svg>
